# xmcd
#
# Track frame offsets:
#  150
#  17412
#  36635
#  46484
#  58863
#  73138
#  84890
#  101995
#  112935
#  128738
#  142140
#  158946
#  168065
#  179329
#
# Disc length: 2615 seconds
#
# Revision: 0
# Processed by: cddbd v1.5.2PL0 Copyright (c) Steve Scherf et al.
# Submitted via: AltoMP3_Maker 3.0
#
DISCID=c20a350e
DTITLE=Ida Viper - West of Idaho
DYEAR=1900
DGENRE=
TTITLE0=Idaho
TTITLE1=The Whole World Round
TTITLE2=Miss Molly
TTITLE3=Well Enough Alone
TTITLE4=Then I'll Be Happy
TTITLE5=Gricklegrass
TTITLE6=Hillbilly Blue
TTITLE7=Time Changes Everything
TTITLE8=Well You Needn't
TTITLE9=I Crept into the Crypt and Cried
TTITLE10=Don't Think Twice, It's All Right
TTITLE11=Carbondale
TTITLE12=My Window Faces the South
TTITLE13=Don't Fence Me In
EXTD=
EXTT0=
EXTT1=
EXTT2=
EXTT3=
EXTT4=
EXTT5=
EXTT6=
EXTT7=
EXTT8=
EXTT9=
EXTT10=
EXTT11=
EXTT12=
EXTT13=
PLAYORDER=
